<svg width="147" height="23" viewBox="0 0 147 23" fill="none" xmlns="http://www.w3.org/2000/svg">
<path d="M34.584 18.0001V5.18406H35.808L41.01 17.0101H40.326L45.474 5.18406H46.698V18.0001H45.33V7.12806L45.888 7.20006L41.172 18.0001H40.128L35.34 7.20006L35.934 7.12806L35.952 18.0001H34.584ZM49.2474 22.0861L48.9414 20.9521C49.4934 20.8201 49.9554 20.6641 50.3274 20.4841C50.7114 20.3161 51.0294 20.0941 51.2814 19.8181C51.5454 19.5421 51.7734 19.1761 51.9654 18.7201L52.5414 17.3881L52.8654 16.9381L56.1774 8.94606H57.6354L53.4054 18.8281C53.0814 19.5601 52.7154 20.1421 52.3074 20.5741C51.8994 21.0181 51.4374 21.3541 50.9214 21.5821C50.4174 21.8101 49.8594 21.9781 49.2474 22.0861ZM52.5594 18.4681L48.4914 8.94606H50.0214L53.2974 16.9381L52.5594 18.4681Z" fill="#2E2E2E"/>
<path d="M65.1279 18.1621C63.8199 18.1621 62.6859 17.8921 61.7259 17.3521C60.7659 16.8121 60.0279 16.0501 59.5119 15.0661C58.9959 14.0701 58.7379 12.9061 58.7379 11.5741C58.7379 10.2541 58.9959 9.10206 59.5119 8.11806C60.0279 7.13406 60.7659 6.37206 61.7259 5.83206C62.6859 5.29206 63.8199 5.02206 65.1279 5.02206C65.9799 5.02206 66.7899 5.15406 67.5579 5.41806C68.3259 5.67006 68.9619 6.03006 69.4659 6.49806L68.5839 8.51406C68.0079 8.08206 67.4439 7.77006 66.8919 7.57806C66.3519 7.37406 65.7819 7.27206 65.1819 7.27206C64.0419 7.27206 63.1599 7.63806 62.5359 8.37006C61.9119 9.09006 61.5999 10.1581 61.5999 11.5741C61.5999 12.9901 61.9119 14.0701 62.5359 14.8141C63.1599 15.5461 64.0419 15.9121 65.1819 15.9121C65.7819 15.9121 66.3519 15.8161 66.8919 15.6241C67.4439 15.4201 68.0079 15.1021 68.5839 14.6701L69.4659 16.6861C68.9619 17.1541 68.3259 17.5201 67.5579 17.7841C66.7899 18.0361 65.9799 18.1621 65.1279 18.1621ZM71.2582 18.0001V4.75206H73.9762V10.7281L73.6702 10.6381C73.9822 9.99006 74.4142 9.49806 74.9662 9.16206C75.5302 8.81406 76.1782 8.64006 76.9102 8.64006C79.0582 8.64006 80.1322 9.91806 80.1322 12.4741V18.0001H77.4142V12.6001C77.4142 11.9521 77.2942 11.4841 77.0542 11.1961C76.8262 10.9081 76.4602 10.7641 75.9562 10.7641C75.3562 10.7641 74.8762 10.9561 74.5162 11.3401C74.1562 11.7241 73.9762 12.2401 73.9762 12.8881V18.0001H71.2582ZM82.2796 18.0001V11.4841C82.2796 11.0521 82.2676 10.6201 82.2436 10.1881C82.2316 9.74406 82.1956 9.30606 82.1356 8.87406H84.6916L84.9796 11.2861L84.6916 11.1421C84.8356 10.3261 85.1776 9.70806 85.7176 9.28806C86.2696 8.86806 86.8936 8.65806 87.5896 8.65806C87.7936 8.65806 87.9736 8.67606 88.1296 8.71206C88.2976 8.74806 88.4416 8.79006 88.5616 8.83806L88.5436 11.3221C88.0996 11.1181 87.6556 11.0161 87.2116 11.0161C86.7196 11.0161 86.3116 11.1061 85.9876 11.2861C85.6756 11.4661 85.4296 11.7241 85.2496 12.0601C85.0816 12.3841 84.9976 12.7741 84.9976 13.2301V18.0001H82.2796ZM89.6625 18.0001V8.87406H92.3805V18.0001H89.6625ZM89.5545 4.59006H92.4885V7.14606H89.5545V4.59006ZM98.1119 18.1441C96.3719 18.1441 94.9979 17.7721 93.9899 17.0281L94.7279 15.1381C95.2079 15.4861 95.7419 15.7561 96.3299 15.9481C96.9299 16.1281 97.5299 16.2181 98.1299 16.2181C98.5979 16.2181 98.9579 16.1461 99.2099 16.0021C99.4619 15.8461 99.5879 15.6361 99.5879 15.3721C99.5879 15.1441 99.4979 14.9701 99.3179 14.8501C99.1379 14.7181 98.8199 14.5981 98.3639 14.4901L96.8699 14.1301C95.9819 13.9501 95.3279 13.6501 94.9079 13.2301C94.4999 12.8101 94.2959 12.2521 94.2959 11.5561C94.2959 10.9921 94.4579 10.4941 94.7819 10.0621C95.1179 9.61806 95.5799 9.27006 96.1679 9.01806C96.7559 8.76606 97.4399 8.64006 98.2199 8.64006C98.8799 8.64006 99.5159 8.74206 100.128 8.94606C100.74 9.13806 101.298 9.41406 101.802 9.77406L101.046 11.5921C100.578 11.2681 100.098 11.0221 99.6059 10.8541C99.1259 10.6861 98.6579 10.6021 98.2019 10.6021C97.7579 10.6021 97.4099 10.6801 97.1579 10.8361C96.9059 10.9921 96.7799 11.2081 96.7799 11.4841C96.7799 11.6881 96.8519 11.8501 96.9959 11.9701C97.1519 12.0901 97.4219 12.1981 97.8059 12.2941L99.3359 12.6361C100.272 12.8521 100.95 13.1761 101.37 13.6081C101.79 14.0401 102 14.6161 102 15.3361C102 16.2001 101.652 16.8841 100.956 17.3881C100.272 17.8921 99.3239 18.1441 98.1119 18.1441ZM102.558 10.9081V8.87406H109.326V10.9081H102.558ZM109.326 15.8041V17.8921C109.074 17.9881 108.822 18.0541 108.57 18.0901C108.318 18.1261 108.048 18.1441 107.76 18.1441C106.632 18.1441 105.768 17.8261 105.168 17.1901C104.58 16.5421 104.286 15.6481 104.286 14.5081V6.73206L107.004 5.85006V14.4541C107.004 14.8141 107.07 15.1021 107.202 15.3181C107.334 15.5341 107.508 15.6901 107.724 15.7861C107.94 15.8701 108.174 15.9121 108.426 15.9121C108.57 15.9121 108.708 15.9061 108.84 15.8941C108.984 15.8701 109.146 15.8401 109.326 15.8041ZM110.721 18.0001V11.4841C110.721 11.0521 110.709 10.6201 110.685 10.1881C110.673 9.74406 110.637 9.30606 110.577 8.87406H113.133L113.331 10.6561L113.133 10.5841C113.385 9.97206 113.769 9.49806 114.285 9.16206C114.813 8.81406 115.443 8.64006 116.175 8.64006C117.003 8.64006 117.657 8.85606 118.137 9.28806C118.629 9.70806 118.953 10.3501 119.109 11.2141L118.677 10.7281C118.941 10.1041 119.361 9.60006 119.937 9.21606C120.513 8.83206 121.167 8.64006 121.899 8.64006C122.943 8.64006 123.717 8.95806 124.221 9.59406C124.725 10.2301 124.977 11.1901 124.977 12.4741V18.0001H122.259V12.5641C122.259 11.9401 122.157 11.4841 121.953 11.1961C121.749 10.9081 121.413 10.7641 120.945 10.7641C120.405 10.7641 119.979 10.9621 119.667 11.3581C119.355 11.7421 119.199 12.2821 119.199 12.9781V18.0001H116.481V12.5641C116.481 11.9401 116.379 11.4841 116.175 11.1961C115.971 10.9081 115.641 10.7641 115.185 10.7641C114.633 10.7641 114.201 10.9621 113.889 11.3581C113.589 11.7421 113.439 12.2821 113.439 12.9781V18.0001H110.721ZM130.703 18.1441C129.911 18.1441 129.209 17.9521 128.597 17.5681C127.985 17.1841 127.511 16.6381 127.175 15.9301C126.839 15.2221 126.671 14.3941 126.671 13.4461C126.671 12.4981 126.839 11.6641 127.175 10.9441C127.523 10.2121 127.997 9.64806 128.597 9.25206C129.209 8.84406 129.911 8.64006 130.703 8.64006C131.435 8.64006 132.083 8.82006 132.647 9.18006C133.211 9.54006 133.595 10.0261 133.799 10.6381L133.583 10.7821V8.87406H136.265V18.0001H133.583V16.1281L133.799 16.1641C133.595 16.7881 133.211 17.2741 132.647 17.6221C132.083 17.9701 131.435 18.1441 130.703 18.1441ZM131.495 16.0741C132.155 16.0741 132.665 15.8461 133.025 15.3901C133.397 14.9341 133.583 14.2741 133.583 13.4101C133.583 12.5461 133.397 11.8861 133.025 11.4301C132.665 10.9621 132.155 10.7281 131.495 10.7281C130.835 10.7281 130.313 10.9681 129.929 11.4481C129.557 11.9281 129.371 12.5941 129.371 13.4461C129.371 14.2981 129.551 14.9521 129.911 15.4081C130.283 15.8521 130.811 16.0741 131.495 16.0741ZM141.969 18.1441C140.229 18.1441 138.855 17.7721 137.847 17.0281L138.585 15.1381C139.065 15.4861 139.599 15.7561 140.187 15.9481C140.787 16.1281 141.387 16.2181 141.987 16.2181C142.455 16.2181 142.815 16.1461 143.067 16.0021C143.319 15.8461 143.445 15.6361 143.445 15.3721C143.445 15.1441 143.355 14.9701 143.175 14.8501C142.995 14.7181 142.677 14.5981 142.221 14.4901L140.727 14.1301C139.839 13.9501 139.185 13.6501 138.765 13.2301C138.357 12.8101 138.153 12.2521 138.153 11.5561C138.153 10.9921 138.315 10.4941 138.639 10.0621C138.975 9.61806 139.437 9.27006 140.025 9.01806C140.613 8.76606 141.297 8.64006 142.077 8.64006C142.737 8.64006 143.373 8.74206 143.985 8.94606C144.597 9.13806 145.155 9.41406 145.659 9.77406L144.903 11.5921C144.435 11.2681 143.955 11.0221 143.463 10.8541C142.983 10.6861 142.515 10.6021 142.059 10.6021C141.615 10.6021 141.267 10.6801 141.015 10.8361C140.763 10.9921 140.637 11.2081 140.637 11.4841C140.637 11.6881 140.709 11.8501 140.853 11.9701C141.009 12.0901 141.279 12.1981 141.663 12.2941L143.193 12.6361C144.129 12.8521 144.807 13.1761 145.227 13.6081C145.647 14.0401 145.857 14.6161 145.857 15.3361C145.857 16.2001 145.509 16.8841 144.813 17.3881C144.129 17.8921 143.181 18.1441 141.969 18.1441Z" fill="#EB5757"/>
<path fill-rule="evenodd" clip-rule="evenodd" d="M6.5 2.00006C6.10218 2.00006 5.72064 2.1581 5.43934 2.4394C5.15804 2.72071 5 3.10224 5 3.50006C5 3.89789 5.15804 4.27942 5.43934 4.56072C5.72064 4.84203 6.10218 5.00006 6.5 5.00006H9.65402C9.53195 4.68068 9.37741 4.32948 9.18628 3.98198C8.55732 2.8384 7.6939 2.00006 6.5 2.00006ZM3 3.50006C3 4.0239 3.11743 4.53563 3.33772 5.00006H1C0.447715 5.00006 0 5.44778 0 6.00006V11.0001C0 11.5523 0.447715 12.0001 1 12.0001H2V21.0001C2 21.5523 2.44772 22.0001 3 22.0001H11H19C19.5523 22.0001 20 21.5523 20 21.0001V12.0001H21C21.5523 12.0001 22 11.5523 22 11.0001V6.00006C22 5.44778 21.5523 5.00006 21 5.00006H18.6623C18.8826 4.53563 19 4.0239 19 3.50006C19 2.5718 18.6313 1.68156 17.9749 1.02519C17.3185 0.36881 16.4283 6.10352e-05 15.5 6.10352e-05C13.1939 6.10352e-05 11.8073 1.66172 11.0613 3.01814C11.0405 3.05596 11.0201 3.09374 11 3.13148C10.9799 3.09374 10.9595 3.05596 10.9387 3.01814C10.1927 1.66172 8.8061 6.10352e-05 6.5 6.10352e-05C5.57174 6.10352e-05 4.6815 0.36881 4.02513 1.02519C3.36875 1.68156 3 2.5718 3 3.50006ZM12.346 5.00006H15.5C15.8978 5.00006 16.2794 4.84203 16.5607 4.56072C16.842 4.27942 17 3.89789 17 3.50006C17 3.10224 16.842 2.72071 16.5607 2.4394C16.2794 2.1581 15.8978 2.00006 15.5 2.00006C14.3061 2.00006 13.4427 2.8384 12.8137 3.98198C12.6226 4.32948 12.4681 4.68068 12.346 5.00006ZM12 7.00006V10.0001H19H20V7.00006H15.5H12ZM6.5 7.00006H10V10.0001H3H2V7.00006H6.5ZM12 20.0001H18V12.0001H12V20.0001ZM10 12.0001V20.0001H4V12.0001H10Z" fill="#EB5757"/>
</svg>
